<?xml version="1.0" encoding="utf-8"?>
<!-- Generator: Adobe Illustrator 16.0.0, SVG Export Plug-In . SVG Version: 6.00 Build 0)  -->
<!DOCTYPE svg PUBLIC "-//W3C//DTD SVG 1.1//EN" "http://www.w3.org/Graphics/SVG/1.1/DTD/svg11.dtd">
<svg version="1.1" xmlns="http://www.w3.org/2000/svg" xmlns:xlink="http://www.w3.org/1999/xlink" x="0px" y="0px"
	 width="694.829px" height="113.296px" viewBox="0 0 694.829 113.296" enable-background="new 0 0 694.829 113.296"
	 xml:space="preserve">
<g id="Capa_2">
	<g>
		<path fill-rule="evenodd" clip-rule="evenodd" fill="#FFFFFF" d="M37.808,36.64h0.084H37.808L37.808,36.64z M56.881,5.352
			c28.276,0,51.339,23.062,51.339,51.339c0,28.276-23.062,51.338-51.339,51.338c-28.276,0-51.338-23.062-51.338-51.338
			C5.542,28.414,28.605,5.352,56.881,5.352L56.881,5.352z M91.506,28.896c0.024-0.074,0.024-0.16,0-0.208
			c-0.125-0.202-0.853-0.437-1.091-0.601c-1.304-1.032-2.044-2.84-2.929-4.179c-2.505-3.693-4.544-6.106-8.872-7.781
			c-1.202-0.465-2.896-0.226-3.934,0.614c-1.772,1.439-3.294,3.797-2.145,6.077c1.464,2.439,1.054,5.449-1.887,6.678
			c-3.334,1.394-3.487-0.07-5.135,0.343c-0.113,0.049-0.513,0.533-0.723,0.601c-0.413,0.163-0.825,0.326-1.237,0.49
			c-0.242-0.12-0.482-0.193-0.405-0.502c0.709-0.299,2.583-0.8,2.512-1.679c-0.042-0.525-1.831-0.677-3.272-2.88
			c-1.088-1.664-1.306,0.267-5.417-1.213c-1.052-0.379-0.848-0.335-1.225,1.225l-0.687,2.598c-0.115,0.323-0.507,0.766-0.368,1.14
			c0.149,0.401,0.915,0.704,0.87,1.164c-0.085,0.429-1.179,1.512-1.446,1.532c-0.706,0.079-0.999,0.428-1.581,0.833
			c-0.182-0.073,0.237-0.552-0.221-0.552c-0.364,0.458-0.727,0.915-1.09,1.373c0.102,0.41,0.669-0.341,0.784-0.466
			c0.051,0.194,0.159-0.222,0.159,0.319c-0.461,0.404-0.923,0.809-1.385,1.213c-0.22,0.079-0.539-0.001-0.858,0.233
			c-0.479,0.411-0.446-0.368-1.568,0.539c-1.107,0.895,1.22,0.256-2.782,2.145c-5.613,2.649-5.12,2.336-10.911,3.38v-2.435
			l0.716-0.001c1.274-0.392,2.622-0.11,3.909-0.735c0.657-0.295,1.1-0.298,1.728-0.711l-0.282-0.576
			c0.234-0.341,0.439-0.483,0.857-0.367c1.324,0.293,2.329-0.724,3.26-1.238c0.754-0.458,0.412-0.815,0.576-0.944
			c0.277-0.217,0.338,0.191,0.588,0.147c0.749-0.133,0.2-1.102,1.09-1.397c0.359-0.017,0.719-0.033,1.078-0.049
			c0.113-0.025,0.474-0.267,0.552-0.074c0.338,0.839,1.352-0.275,1.397-0.502c0.136-0.682-0.959-0.999,0.221-2.022
			c1.164-0.943,1.434-2.01,2.451-2.831c0.389-0.217,0.838,0.742,1.091,0.772c0.171-0.351,0.343-0.703,0.515-1.054
			c0.311-1.397,0.621-2.794,0.931-4.191c0.115-0.178,1.033,0.629,1.838,0.833c1.691,0.478,3.456,0.968,4.987,0.245
			c0.853-0.65,0.008-0.777-0.49-1.152c-1.562-1.175-0.774-0.954-2.892-1.41c-0.454-0.097-3.791-1.68-3.726-1.997
			c0.099-0.48,0.03-0.802-0.221-1.164c-0.61-0.883-1.186-1.797-1.887-2.61c-0.133-0.154-1.149-0.868-1.323-0.564
			c-0.077,0.134-0.069,0.638-0.257,0.638c-1.298-1.382-3.306-0.663-3.848,0.943c-0.067,0.2-0.509,1.575-0.196,1.642
			c0.551-0.09,1.103-0.18,1.654-0.27c0.278,0.012,0.385,0.583,0.502,0.723c0.945,0.862,2.54,1.195,2.451,1.752
			c-0.043,0.27-0.651,0.545-0.417,1.507c0.058,0.186,0.226,0.376,0.196,0.576c-0.056,0.379-0.538,0.463-0.563,0.87
			c0.074,0.29,0.147,0.58,0.221,0.87c0.364,0.262,0.727,0.523,1.091,0.785c0.137,0.16-0.091,0.305-0.221,0.306
			c-0.947-0.039-1.641-0.449-2.01,0.233c-0.103,0.184-0.204,0.368-0.307,0.552c-0.185,0.71,0.868,1.719,0.637,1.899
			c-0.234,0.183-0.96-0.785-2.206,0.368c-4.882,4.517-10.152,0.219-9.289-3.554c0.189-0.828,2.038-2.534,0.637-5.478
			c-1.134-2.383-3.343-4.004-6.078-3.063c-2.994,1.03-6.175,4.52-7.647,7.303c-1.821,3.443-1.131,2.655-3.554,5.282
			c0.033,0.098,0.065,0.196,0.098,0.294c0.049,0.012,0.086,0.049,0.196,0.123c1.103,0.343,2.169-0.221,2.953-0.919
			c2.007-1.808,3.345-5.473,5.502-6.226c0.053-0.011,0.269,0.037,0.233,0.147l-2.721,3.75c-0.49,0.882-1.201,1.74-2.022,2.329
			c-0.057,0.414,0.006,0.613,0.393,0.808c2.263,1.144,4.002-1.591,5.135-3.186c0.201-0.283,1.502-1.791,2.022-1.312
			c0.251,0.232-0.337,0.715-0.479,0.882c-0.686,0.76-1.262,1.495-1.924,2.292c-0.775,0.907-1.441,2.277-2.659,2.61
			c-0.472,0.11-0.663,0.027-0.87,0.441c0.062,0.491,0.343,0.858,0.649,1.103c0.601,0.245,1.25,0.478,1.875,0.343
			c2.421-0.928,2.659-2.971,4.275-4.214c0.231-0.178,0.365,0.126,0.149,0.44c-1.325,1.488-1.978,3.1-3.406,4.448
			c-0.458,0.159-0.915,0.319-1.373,0.478c-0.12,0.314-0.16,0.494,0.061,0.796c0.46,0.632,1.33,0.845,2.107,0.76
			c2.146-0.234,2.59-2.271,3.995-3.382c0.186-0.115,0.307-0.067,0.257,0.012c-0.257,0.441-0.515,0.845-0.784,1.373
			c-0.527,1.14-1.409,1.997-2.23,3.051c0.024,0.037,0.049,0.098,0.049,0.146l1.103,0.294c2.2-0.018,3.971-2.762,4.559-3.112
			c0.065-0.024,0.102,0.061,0.146,0.061c0.049,0.118,0.098,0.237,0.147,0.355c-0.397,0.925-1.219,1.78-1.975,2.463
			c-0.608,0.55-1.298,0.975-2.155,1.09c-2.794,0.375-2.811-0.262-4.234-1.17v10.157c0,0.837-0.271,1.614-0.953,2.392
			c0.762,0.02,1.484-0.18,2.105-0.545c0.069,0.515,0.141,1.023,0.217,1.525l-1.371,0.635v10.51c0,0.837-0.271,1.615-0.954,2.392
			c2.227,0.057,4.115-1.761,4.115-4.082v-0.926c0.343,1.244,0.713,2.439,1.109,3.591l0,14.542c0,0.809,0.223,2.373,1.34,2.373
			c1.117,0,1.361-1.564,1.361-2.373v-8.07c0.31,0.621,0.629,1.226,0.957,1.818v2.922c0,0.81,0.262,2.373,1.568,2.373
			c0.618,0,1.008-0.349,1.247-0.803c2.144,3.035,4.533,5.672,7.086,8.077c-1.008,2.838-3.206,7.023-7.101,8.583l5.108,4.289
			l3.718-10.151c0.276-0.752,1.044-0.279,0.794,0.447l-3.525,10.23l3.413,1.991l2.559-9.865c0.237-0.916,1.039-0.517,0.938,0
			l-2.492,12.663h7.711l-2.492-12.663c-0.102-0.517,0.7-0.916,0.937,0l2.559,9.865l3.413-1.991l-3.525-10.23
			c-0.25-0.726,0.518-1.199,0.793-0.447l3.718,10.151l5.108-4.289c-3.841-1.539-6.032-5.707-7.059-8.531
			c2.605-2.448,5.041-5.137,7.221-8.24c0.232,0.507,0.634,0.914,1.301,0.914c1.307,0,1.569-1.563,1.569-2.373v-3.166
			c0.328-0.601,0.646-1.216,0.957-1.846v8.341c0,0.809,0.245,2.373,1.361,2.373s1.34-1.564,1.34-2.373v-14.94
			c0.397-1.182,0.767-2.411,1.109-3.689l0,1.423c0,2.321,1.888,4.139,4.116,4.082c-0.683-0.777-0.954-1.555-0.954-2.392v-10.51
			l-1.496-0.693c0.077-0.508,0.149-1.021,0.218-1.542c0.647,0.413,1.416,0.642,2.229,0.621c-0.682-0.777-0.954-1.555-0.954-2.392
			V36.56c-6.383,3.756-9.256-3.822-8.593-3.756c0.306,0.03,1.661,2.589,3.04,3.431c0.866,0.411,0.842,0.343,1.801,0.343
			c0.506-0.327,1.355-0.587,1.005-1.09c-0.363-0.388-0.727-0.776-1.09-1.164c-0.653-1.071-1.414-2.2-2.108-3.248
			c-0.249-0.826,3.124,3.307,3.198,3.358c0.25,0.11,0.499,0.22,0.748,0.331c0.551,0.02,1.103,0.041,1.654,0.061
			c0.452-0.106,1.358-0.809,1.372-1.287c-0.012-0.049-0.024-0.085-0.049-0.085c0-0.506-1.117,0.306-2.341-2.23
			c0.307-0.27-0.171,0.037,0.074-0.11c0.492,0.348,1.37,1.101,1.949,1.127c1.376,0.063,2.353-0.832,3.259-2.254
			c-0.92,0.276-2.271-0.113-2.941-0.797c-0.013-0.024-0.024-0.024-0.024-0.024c-1.025-1.091-1.699-2.177-2.892-3.284
			c-0.33-0.312-1.338-1.054-1.299-1.397c0.037-0.159-0.074-0.453,0.147-0.502c0.892-0.141,3.017,2.717,4.068,3.566
			c0.447,0.361,1.811,1.531,2.377,1.568c0.568,0.039,1.175-0.625,1.36-1.09c-0.637-1.239-1.551-1.416-1.961-3.284
			c0.354,0.177,0.707,0.985,0.882,1.14c0.748,0.62,1.848,2.744,3.615,3.235C89.938,29.238,90.893,29.349,91.506,28.896
			L91.506,28.896z M53.627,12.56c-1.685-0.581-1.81,1.399-1.146,1.83l1.655,1.09c0.559,0.84-0.548,0.204,1.042,2.083
			c0.745,0.88,0.614,1.649,1.447,2.262c0.41,0.429,3.199,1.361,3.862,1.365c0.943,0.242,1.843-1.492,0.498-1.65
			c-1.508-0.177-2.86-0.378-3.76-1.552c-0.215-0.28,0.172-0.564,0.524-0.261c0.952,0.822,1.871,0.942,3.133,0.662
			c0.762-0.169,1.121-0.572,1.361-1.356c0.327-1.065-2.912,0.121-4.044-0.796c-0.383-0.31-0.144-0.614,0.357-0.458
			c0.897,0.279,2.791,0.137,3.197-0.179c0.526-0.409,0.961-0.549,1.013-1.466c0.036-0.629-0.082-0.722-1.675-0.139
			C59.498,14.577,55.313,13.141,53.627,12.56L53.627,12.56z M48.836,34.397l-0.098-0.037l-0.772,0.38l-0.514-0.246l-2.022,1.422
			c0.024,0.073,0.062,0.098,0.074,0.135l1.299-0.527c0.472-0.103-0.597,0.572-0.074,0.833c0.931-0.417,1.765-0.907,2.181-1.813
			C48.873,34.471,48.873,34.434,48.836,34.397L48.836,34.397z M51.005,32.24l-0.294,0.111l-0.429,0.821
			c-0.197,0.523,0.536,0.479,0.564,0.515c0.061,0.074-0.037,0.184,0.085,0.184c0.044-0.017,0.665-0.544,0.441-0.637
			c-1.054,0.704,0.257-0.577,0.257-0.845L51.005,32.24L51.005,32.24z M68.517,35.157l-4.29-2.708
			c-0.525-0.274-3.696-3.406-3.97-3.407c-0.249,0.098-0.498,0.196-0.747,0.294c-0.83,0.269-1.844,0.208-2.022,1.237
			c-0.121,0.7,1.811,2.119,2.218,2.23c-0.237-0.502-0.395-0.803,0.159-1.09c0.159,0.094,0.319,0.188,0.478,0.282
			c0.249-0.25,0.433-0.095,0.735,0.012c0.131-0.307-0.026-0.198,0.454-0.294c0.367,0.294,0.784,0.539,0.857,0.956
			c-0.003,0.038-0.143,0.266-0.282,0.257c-0.139-0.009-0.671-0.577-0.784-0.687c0.069,0.26,0.408,0.316,0.061,0.638
			c-0.37,0.329-0.269,0.502-0.429,0.662c-0.049,0.037-0.099,0.085-0.123,0.147c0.279,0.209,0.14,0.668,2.23,1.728
			c0.48-0.478,0.267-0.637,1.213-0.221c0.17-0.426,0.055-0.325,0.441-0.502c0.246,0.213,0.97,0.6,0.771,1.017
			c-0.073,0.147-0.269,0.085-0.343,0.208c0.157,0.521-0.2,0.71,0.368,1.042c2.983,1.699,5.502,2.54,8.924,3.63l4.324,0.792v-2.626
			c-1.614-0.409-2.959-0.75-4.573-1.158L68.517,35.157L68.517,35.157z M56.647,89.176c-0.451-0.343-0.899-0.688-1.345-1.036
			c0.443,0.352,0.89,0.699,1.34,1.041L56.647,89.176L56.647,89.176z M56.648,87.262c15.447-11.737,21.999-23.508,23.399-44.189
			c-9.067-1.566-17.182-4.693-23.399-10.991c-6.255,6.411-14.188,9.681-23.4,10.991C34.649,63.754,41.201,75.525,56.648,87.262
			L56.648,87.262z M57.032,57.011c0.317,0.513,0.588,0.168,1.035,0.991c0.533,0.981,1.29,1.892,0.328,2.189
			c0.032,0.156,0.068,0.382,0.182,0.589c0.997,0.121,0.952-1.939,1.098-2.085c0.292,0,1.521,1.323,3.259,1.812
			c1.095-0.498,1.94-1.945,2.393-3.041c0.463-0.335,0.962-0.426,1.319-0.902c0.289-0.387,0.627-1.079,0.611-1.666
			c0.058-0.61-0.786-0.589-1.526-0.565c-1.289,0.142-1.626,1.932-1.709,2.336c-0.617,0.423-1.241,0.995-1.582,1.416
			c-0.733-0.521-1.128-1.241-1.695-2.103c0.741-0.589,1.666-0.727,2.536,0.379c-0.006-0.704-0.159-1.274-1.417-1.589
			c1.011-1.184,1.699-1.653,2.247-2.125c0.677-0.86-0.111-0.91-0.425-0.47c-0.806,0.725-1.37,1.674-2.691,1.426
			c1.895-1.904,2.221-3.61,2.373-3.781c-0.246-0.103-0.414-0.582-0.833,0.287c-0.288,1.129-0.978,2.085-3.385,2.583
			c-0.79,0.218-0.579,0.925-1.548,1.349c-0.081,0.739-0.312,1.078-0.574,1.28C56.617,55.638,56.594,56.304,57.032,57.011
			L57.032,57.011z M57.277,56.818c0.418,0.342,0.611-0.146,1.181-0.808c0.071-0.158,0.11-0.335,0.1-0.499
			c-0.033-0.534-0.357-0.548-0.738-0.472c-0.28,0.056-0.515,0.369-0.688,0.588C56.911,55.912,56.863,56.478,57.277,56.818
			L57.277,56.818z M59.041,55.425l1.417-0.231c0.725-0.236,0.891-0.627,0.963-0.987c-0.416-0.379-0.862-0.137-1.246-0.02
			l-1.276,0.692L59.041,55.425L59.041,55.425z M58.039,57.17c-0.005,0.422,0.326,0.98,0.543,0.952
			c0.202-0.026,0.29,0.373,0.466-0.279c-0.231-0.389-0.249-0.645-0.375-0.942C58.469,56.417,58.045,56.629,58.039,57.17
			L58.039,57.17z M58.921,54.444c1.006-0.729,1.441-0.848,1.811-1.007c0.229-0.49-0.229-0.716-0.581-0.586
			c-0.399,0.19-0.875,0.418-1.435,0.979C58.316,54.089,58.576,54.597,58.921,54.444L58.921,54.444z M65.224,56.908
			c1.181-0.219,1.554-1.123,1.547-1.685c0.094-0.51-0.459-0.493-1.403-0.329c-0.283,0.139-0.613,0.426-0.858,1.278
			C64.551,56.49,64.841,56.839,65.224,56.908L65.224,56.908z M62.833,60.056c0.583,0,1.892-2.169,1.892-2.46
			c0-0.73-0.532-0.586-0.823-0.44c-0.921,0.604-1.493,1.682-1.639,1.536c-0.77-0.494-1.533-2.522-2.513-2.848
			c-0.546-0.182-1.131,0.221-0.85,0.843C59.431,57.862,61.406,59.715,62.833,60.056L62.833,60.056z M53.375,62.571
			c-0.774,0.99-0.354,1.217,0.441,0.984c0.598-0.174,1.262-0.686,1.39-1.294c0.125-0.59-0.154-0.819-1.082-0.264
			c-0.693-0.555-1.247-3.003-2.451-4.671c0.714-0.894,0.134-1.368-0.142-1.325c0.771-1.53,0.105-1.566-0.721-1.499
			c0.091-1.112,0.602-2.463-0.305-3.692c-0.068-0.392-1.958-0.778-0.944-1.969c-1.398-0.152-1.055,1.326-1.016,2.02
			c-0.468-0.032-0.34-0.976-0.605-0.798c-0.371,0.41-0.315,0.991-0.543,1.774c-0.206,0.707-0.769,1.012-1.38,1.684
			c0.763,2.053,1.642,1.607,2.171,2.275c-1.454,2.11,1.053,1.04,0.89,1.473c-0.343,0.912,0.23,1.056,1.028,0.861
			C51.274,59.834,52.076,60.979,53.375,62.571L53.375,62.571z M48.409,52.436c-2.587,0.372-1.268,1.994,0.005,3.051
			c0.316,0.322,1.594-0.759,1.727-0.662c0.077-0.526,0.048-1.352-0.126-2.304c-0.25,0.205-0.497,0.404-0.677,0.534
			C49.67,53.079,49.144,49.995,48.409,52.436L48.409,52.436z M50.852,54.886c-0.11-0.107-1.04,1.023-2.367,1.11
			c-0.153,0.145-0.806,0.747-0.049,0.827c0.518,0.047,2.241-0.619,2.827-1.538C51.378,55.039,51.309,54.595,50.852,54.886
			L50.852,54.886z M56.648,81.763c9.386-6.751,17.427-15.746,18.81-35.06c-6.52-1.813-12.853-4.354-18.81-8.363
			c-5.958,4.009-12.291,6.55-18.81,8.363C39.22,66.017,47.262,75.011,56.648,81.763L56.648,81.763z M68.653,67.01
			c-1.471,0.396-3.388,0.449-5.232,0.342c-0.059-0.003-0.116-0.006-0.172-0.009v7.771c5.857-5.951,10.296-14.16,11.269-27.743
			c-3.839-1.068-7.609-2.401-11.269-4.167v2.241c2.695,0.631,5.405-0.574,5.405,1.337V67.01L68.653,67.01z M62.586,45.293v-2.415
			c-2.017-1.006-3.999-2.147-5.938-3.454c-1.94,1.306-3.922,2.447-5.939,3.454v2.277c1.718-0.225,3.408-0.202,5.701,0.762
			C59.55,44.853,61.039,44.961,62.586,45.293L62.586,45.293z M44.643,67.01V46.78c0-1.61,2.521-1.032,4.33-1.345
			c0.366-0.063,0.723-0.126,1.074-0.183v-2.05c-3.66,1.767-7.43,3.1-11.269,4.167c0.972,13.583,5.411,21.792,11.269,27.743v-7.681
			C47.901,67.616,45.94,67.786,44.643,67.01L44.643,67.01z M50.709,67.376v8.395c1.869,1.814,3.869,3.418,5.939,4.906
			c2.069-1.488,4.07-3.092,5.938-4.906v-8.449c-3.097-0.039-3.78,0.838-6.137,0.835c-2.662-0.004-3.846-0.926-5.434-0.805
			C50.913,67.359,50.811,67.368,50.709,67.376L50.709,67.376z M45.647,65.6c6.082,1.312,5.939-0.616,10.516,0.367L56.19,46.87
			c-3.511-2.001-7.486-0.073-10.543-0.225V65.6L45.647,65.6z M56.65,62.148v1.024v2.851c3.338-1.314,7.814,0.483,10.762-0.585
			V46.523c-2.844,0.615-7.163-1.896-10.762,0.341V62.148L56.65,62.148z M80.359,82.996c1.308,0,1.568-1.564,1.568-2.373l0-15.99
			l-3.162-1.397v17.387C78.766,81.432,79.052,82.996,80.359,82.996L80.359,82.996z M87.182,65.646
			c-0.683-0.778-0.954-1.555-0.954-2.392v-10.51l-3.163-1.466l0.001,10.287C83.066,63.886,84.955,65.704,87.182,65.646
			L87.182,65.646z M87.182,85.614c-0.683-0.778-0.954-1.555-0.954-2.392V66.633l-3.163-1.467l0.001,16.366
			C83.066,83.854,84.955,85.671,87.182,85.614L87.182,85.614z M91.452,66.581c-0.683-0.777-0.954-1.555-0.954-2.392v-9.481
			l-3.163-1.466l0.001,9.259C87.336,64.82,89.225,66.638,91.452,66.581L91.452,66.581z M91.452,87.104
			c-0.683-0.778-0.954-1.555-0.954-2.392V68.586l-3.163-1.466l0.001,15.902C87.336,85.343,89.225,87.161,91.452,87.104
			L91.452,87.104z M87.097,51.735c-0.682-0.777-0.954-1.555-0.954-2.392V31.555l-3.163,3.739l0.001,12.359
			C82.981,49.974,84.87,51.792,87.097,51.735L87.097,51.735z M91.452,53.63c-0.683-0.777-0.954-1.555-0.954-2.392v-19.44
			l-3.163-1.683l0.001,19.435C87.336,51.87,89.225,53.688,91.452,53.63L91.452,53.63z M33.07,82.996
			c1.307,0,1.593-1.564,1.593-2.373V63.236l-3.162,1.397l0,15.99C31.502,81.432,31.763,82.996,33.07,82.996L33.07,82.996z
			 M26.247,65.646c2.228,0.058,4.116-1.76,4.116-4.082l0.001-10.287l-3.163,1.466v10.51C27.201,64.091,26.93,64.869,26.247,65.646
			L26.247,65.646z M26.247,85.614c2.228,0.057,4.116-1.76,4.116-4.082l0.001-16.366l-3.163,1.467v16.588
			C27.201,84.059,26.93,84.836,26.247,85.614L26.247,85.614z M21.978,66.581c2.227,0.057,4.115-1.761,4.115-4.081l0.001-9.259
			l-3.163,1.466v9.481C22.931,65.026,22.66,65.803,21.978,66.581L21.978,66.581z M21.978,87.104
			c2.227,0.057,4.115-1.761,4.115-4.081l0.001-15.902l-3.163,1.466v16.125C22.931,85.548,22.66,86.326,21.978,87.104L21.978,87.104z
			 M26.332,51.735c2.228,0.058,4.116-1.761,4.116-4.081l0.001-12.359l-3.163-3.739v17.788C27.286,50.18,27.015,50.958,26.332,51.735
			L26.332,51.735z M21.978,53.63c2.227,0.058,4.115-1.76,4.115-4.081l0.001-19.435l-3.163,1.683v19.44
			C22.931,52.076,22.66,52.853,21.978,53.63L21.978,53.63z M57.314,83.834c-0.046,0.203-0.124,0.352-0.231,0.447
			c-0.107,0.095-0.236,0.142-0.385,0.142c-0.202,0-0.366-0.074-0.493-0.224c-0.126-0.148-0.189-0.398-0.189-0.749
			c0-0.331,0.064-0.57,0.193-0.717c0.127-0.147,0.295-0.221,0.501-0.221c0.148,0,0.275,0.041,0.38,0.125
			c0.104,0.083,0.172,0.197,0.206,0.34l0.554-0.131c-0.063-0.223-0.158-0.394-0.285-0.513c-0.211-0.201-0.487-0.302-0.827-0.302
			c-0.389,0-0.703,0.128-0.941,0.384c-0.238,0.255-0.358,0.615-0.358,1.077c0,0.437,0.119,0.782,0.356,1.034
			c0.238,0.251,0.541,0.377,0.91,0.377c0.298,0,0.543-0.074,0.737-0.222c0.194-0.148,0.333-0.375,0.416-0.681L57.314,83.834
			L57.314,83.834z M63.959,80.396l-2.636-1.412l-0.455,0.382l0.958,2.818l0.456-0.382l-0.229-0.632l0.853-0.715l0.59,0.33
			L63.959,80.396L63.959,80.396z M62.465,80.213l-0.956-0.539l0.373,1.028L62.465,80.213L62.465,80.213z M59.669,84.065l0.431-0.361
			l-0.78-0.929l0.837-0.703l0.78,0.929l0.431-0.361l-1.784-2.125l-0.431,0.361l0.703,0.837l-0.837,0.703l-0.702-0.837l-0.431,0.361
			L59.669,84.065L59.669,84.065z M53.93,80.347l-0.952,1.135c-0.2,0.238-0.337,0.43-0.411,0.575c-0.05,0.099-0.076,0.21-0.078,0.336
			c-0.002,0.126,0.029,0.256,0.094,0.391s0.199,0.287,0.401,0.457c0.167,0.141,0.321,0.233,0.462,0.277
			c0.14,0.044,0.271,0.057,0.394,0.036c0.124-0.021,0.241-0.074,0.353-0.16s0.275-0.257,0.489-0.512l0.938-1.118l-0.43-0.362
			l-0.988,1.177c-0.141,0.168-0.249,0.283-0.322,0.346s-0.161,0.092-0.264,0.091c-0.104-0.001-0.215-0.053-0.335-0.154
			c-0.119-0.1-0.19-0.204-0.215-0.315c-0.024-0.11-0.008-0.216,0.046-0.319c0.035-0.062,0.129-0.186,0.283-0.369l0.966-1.152
			L53.93,80.347L53.93,80.347z M50.481,81.022l1.497,1.256l0.301-0.359l-1.066-0.895l1.467-1.749l-0.43-0.362L50.481,81.022
			L50.481,81.022z M65.975,78.255l0.387-0.408l-1.674-1.587l0.563-0.593l-0.34-0.323l-1.515,1.598l0.34,0.322l0.565-0.596
			L65.975,78.255L65.975,78.255z M67.219,76.913l0.359-0.432l-0.891-0.742l0.073-0.087c0.083-0.1,0.151-0.166,0.205-0.199
			c0.054-0.032,0.12-0.051,0.197-0.056c0.077-0.005,0.245,0.005,0.502,0.032l0.723,0.079l0.428-0.515l-0.632-0.086
			c-0.251-0.035-0.435-0.05-0.55-0.044c-0.115,0.006-0.239,0.033-0.37,0.081c0.128-0.209,0.179-0.404,0.153-0.584
			s-0.12-0.337-0.28-0.471c-0.126-0.104-0.264-0.167-0.414-0.187c-0.149-0.019-0.286,0.007-0.411,0.079
			c-0.124,0.071-0.281,0.221-0.471,0.449l-0.754,0.908L67.219,76.913L67.219,76.913z M66.348,75.458l0.265-0.319
			c0.172-0.207,0.27-0.343,0.295-0.409c0.025-0.066,0.029-0.131,0.01-0.196c-0.018-0.064-0.06-0.124-0.124-0.177
			c-0.072-0.06-0.146-0.088-0.222-0.087c-0.076,0.001-0.149,0.032-0.218,0.093c-0.034,0.031-0.124,0.134-0.269,0.308l-0.28,0.336
			L66.348,75.458L66.348,75.458z M70.497,72.644l-2.906-0.704l-0.344,0.484l1.636,2.487l0.344-0.484l-0.381-0.554l0.646-0.907
			l0.654,0.171L70.497,72.644L70.497,72.644z M69.004,72.842l-1.061-0.281l0.62,0.901L69.004,72.842L69.004,72.842z M68.361,70.841
			l2.348,1.48l0.504-0.799c0.188-0.304,0.303-0.498,0.345-0.582c0.065-0.135,0.095-0.265,0.089-0.388
			c-0.006-0.125-0.044-0.243-0.114-0.357c-0.069-0.113-0.158-0.204-0.265-0.271c-0.136-0.086-0.278-0.122-0.427-0.109
			c-0.149,0.014-0.289,0.078-0.421,0.194c0.018-0.13,0-0.253-0.054-0.37c-0.054-0.117-0.136-0.21-0.246-0.279
			c-0.102-0.064-0.208-0.098-0.32-0.101c-0.112-0.003-0.215,0.016-0.31,0.057c-0.094,0.042-0.177,0.103-0.251,0.184
			c-0.073,0.082-0.167,0.215-0.286,0.401L68.361,70.841L68.361,70.841z M69.051,70.611l0.541,0.341l0.196-0.311
			c0.116-0.184,0.186-0.3,0.208-0.349c0.042-0.087,0.054-0.168,0.037-0.244c-0.017-0.076-0.063-0.137-0.139-0.185
			c-0.073-0.046-0.144-0.062-0.214-0.051c-0.071,0.011-0.135,0.054-0.195,0.126c-0.035,0.043-0.123,0.177-0.263,0.399L69.051,70.611
			L69.051,70.611z M69.982,71.199l0.629,0.397l0.277-0.439c0.108-0.17,0.171-0.283,0.191-0.334c0.031-0.079,0.036-0.156,0.014-0.231
			c-0.022-0.076-0.074-0.14-0.158-0.193c-0.071-0.045-0.142-0.065-0.212-0.062c-0.07,0.003-0.138,0.03-0.201,0.08
			c-0.063,0.05-0.163,0.184-0.299,0.399L69.982,71.199L69.982,71.199z M73.447,67.686l-2.964-0.386l-0.29,0.518l1.895,2.296
			l0.291-0.519l-0.438-0.51l0.543-0.971l0.669,0.1L73.447,67.686L73.447,67.686z M71.984,68.043L70.9,67.878l0.713,0.829
			L71.984,68.043L71.984,68.043z M71.563,65.203l1.606,0.8c0.201,0.1,0.322,0.189,0.363,0.266c0.042,0.078,0.034,0.172-0.021,0.283
			c-0.055,0.11-0.14,0.169-0.255,0.179c-0.076,0.007-0.187-0.023-0.331-0.087l-0.181,0.503c0.266,0.13,0.5,0.165,0.703,0.1
			c0.202-0.063,0.365-0.218,0.486-0.463c0.104-0.209,0.145-0.399,0.12-0.57c-0.024-0.172-0.097-0.317-0.217-0.438
			c-0.093-0.092-0.243-0.189-0.449-0.292L71.813,64.7L71.563,65.203L71.563,65.203z M75.601,63.032l-2.987-0.105l-0.24,0.543
			l2.103,2.107l0.24-0.543l-0.484-0.467l0.45-1.018l0.675,0.036L75.601,63.032L75.601,63.032z M74.179,63.527l-1.095-0.063
			l0.788,0.758L74.179,63.527L74.179,63.527z M38.318,64.551l0.873,1.919l0.427-0.194l-0.64-1.408l0.685-0.311l0.574,1.263
			l0.427-0.194l-0.574-1.263l0.561-0.255l0.618,1.358l0.427-0.194l-0.85-1.87L38.318,64.551L38.318,64.551z M40.215,66.549
			c-0.257,0.176-0.414,0.385-0.47,0.626c-0.057,0.242-0.003,0.518,0.16,0.829c0.111,0.213,0.235,0.377,0.37,0.488
			c0.134,0.111,0.284,0.174,0.448,0.188c0.164,0.014,0.317-0.017,0.458-0.09c0.155-0.081,0.269-0.182,0.34-0.303
			c0.072-0.121,0.107-0.254,0.108-0.402c0-0.146-0.033-0.355-0.103-0.626c-0.069-0.271-0.093-0.451-0.073-0.542
			c0.015-0.071,0.052-0.122,0.111-0.152c0.064-0.033,0.128-0.034,0.194-0.001c0.102,0.049,0.19,0.146,0.265,0.289
			c0.073,0.139,0.099,0.257,0.08,0.356c-0.019,0.098-0.086,0.191-0.203,0.279l0.278,0.489c0.225-0.128,0.364-0.305,0.419-0.531
			c0.056-0.228,0.002-0.495-0.159-0.802c-0.099-0.189-0.211-0.334-0.338-0.438c-0.127-0.104-0.263-0.162-0.41-0.175
			c-0.146-0.013-0.283,0.013-0.408,0.079c-0.195,0.102-0.322,0.263-0.378,0.485c-0.041,0.158-0.024,0.387,0.048,0.686
			c0.057,0.233,0.09,0.383,0.1,0.452c0.014,0.1,0.01,0.178-0.013,0.233c-0.024,0.055-0.064,0.098-0.123,0.128
			c-0.09,0.047-0.19,0.048-0.3,0.003s-0.207-0.148-0.29-0.307c-0.079-0.151-0.104-0.29-0.074-0.419
			c0.03-0.128,0.118-0.249,0.264-0.363L40.215,66.549L40.215,66.549z M41.122,70.104l0.288,0.482l1.98-1.183l0.419,0.703
			l0.403-0.241l-1.129-1.89l-0.402,0.241l0.421,0.706L41.122,70.104L41.122,70.104z M44.44,70.224l-1.228,0.83
			c-0.257,0.174-0.442,0.32-0.553,0.44c-0.075,0.081-0.131,0.181-0.167,0.302c-0.037,0.121-0.042,0.255-0.017,0.402
			c0.026,0.147,0.113,0.33,0.261,0.549c0.123,0.182,0.245,0.312,0.368,0.394c0.123,0.081,0.245,0.129,0.369,0.143
			c0.125,0.014,0.251-0.005,0.383-0.057c0.131-0.052,0.334-0.171,0.611-0.358l1.209-0.818l-0.315-0.465l-1.272,0.86
			c-0.182,0.123-0.317,0.204-0.404,0.244c-0.088,0.04-0.18,0.044-0.279,0.015c-0.099-0.03-0.192-0.11-0.28-0.24
			c-0.087-0.128-0.127-0.249-0.12-0.362c0.007-0.112,0.051-0.21,0.132-0.293c0.051-0.05,0.175-0.143,0.373-0.277l1.246-0.842
			L44.44,70.224L44.44,70.224z M46.039,72.549l-2.185,1.71l0.648,0.829c0.127,0.163,0.244,0.28,0.352,0.354
			c0.143,0.097,0.282,0.155,0.416,0.173c0.178,0.024,0.367,0.001,0.569-0.069c0.165-0.057,0.337-0.156,0.517-0.296
			c0.205-0.16,0.358-0.319,0.461-0.476c0.103-0.157,0.167-0.319,0.191-0.485c0.025-0.167,0.006-0.329-0.056-0.486
			c-0.046-0.117-0.141-0.266-0.283-0.448L46.039,72.549L46.039,72.549z M46.016,73.281l-1.447,1.132l0.257,0.328
			c0.096,0.123,0.172,0.205,0.229,0.249c0.074,0.058,0.15,0.093,0.23,0.106c0.08,0.014,0.18-0.003,0.301-0.05
			s0.266-0.137,0.436-0.269c0.169-0.132,0.287-0.248,0.354-0.349c0.067-0.1,0.105-0.197,0.114-0.29
			c0.008-0.093-0.01-0.188-0.057-0.284c-0.034-0.072-0.121-0.198-0.261-0.377L46.016,73.281L46.016,73.281z M45.727,76.596
			l0.364,0.428l2.114-1.798l-0.364-0.428L45.727,76.596L45.727,76.596z M48.295,79.412l1.248-2.717l-0.409-0.431l-2.755,1.129
			l0.409,0.431l0.617-0.268l0.766,0.807l-0.293,0.609L48.295,79.412L48.295,79.412z M48.386,77.909l0.479-0.987l-1.003,0.435
			L48.386,77.909L48.386,77.909z M59.812,36.045l-1.54,2.309c0.969,0.646,1.831,1.439,2.687,0.155
			C61.842,37.186,60.834,36.726,59.812,36.045L59.812,36.045z M60.02,36.747L59,38.276c0.663,0.441,0.96,0.69,1.493-0.108
			C60.975,37.446,60.66,37.173,60.02,36.747L60.02,36.747z M60.642,39.926l1.82,1.064l0.237-0.405l-1.335-0.781l0.379-0.649
			l1.198,0.7l0.236-0.405l-1.198-0.7l0.311-0.532l1.289,0.752l0.236-0.405l-1.773-1.036L60.642,39.926L60.642,39.926z
			 M65.874,41.578c-0.632,0.789-1.474,0.065-1.002-0.91c0.466-0.963,1.537-0.651,1.357,0.13l0.557,0.123
			c0.252-1.438-1.759-1.901-2.452-0.468c-0.673,1.394,0.939,2.68,1.956,1.511L65.874,41.578L65.874,41.578z M66.79,41.64
			c-0.7,1.771,1.804,2.763,2.51,0.978C70.017,40.802,67.501,39.84,66.79,41.64L66.79,41.64z M67.333,41.834
			c-0.456,1.153,0.975,1.72,1.434,0.559C69.222,41.242,67.786,40.688,67.333,41.834L67.333,41.834z M69.256,44.077l1.851,0.623
			l0.15-0.444l-1.319-0.444l0.729-2.164l-0.532-0.179L69.256,44.077L69.256,44.077z M71.512,44.821l0.538,0.163l0.802-2.657
			l-0.539-0.162L71.512,44.821L71.512,44.821z M72.595,45.151l0.501,0.135l0.571-2.108l-0.044,2.251l0.521,0.141l1.098-1.966
			l-0.567,2.109l0.501,0.135l0.723-2.679l-0.814-0.22l-0.968,1.699l0.013-1.957l-0.812-0.22L72.595,45.151L72.595,45.151z
			 M78.213,46.5l-0.5-2.947l-0.581-0.125l-1.639,2.485l0.581,0.125l0.359-0.569l1.088,0.235l0.101,0.668L78.213,46.5L78.213,46.5z
			 M77.441,45.208l-0.16-1.085l-0.583,0.924L77.441,45.208L77.441,45.208z M34.212,43.893c0.252,1.4,0.127,2.849,1.619,2.58
			c1.414-0.255,0.798-1.603,0.551-2.971l-0.553,0.1c0.212,1.177,0.672,2.261-0.1,2.401c-0.811,0.146-0.762-1.085-0.964-2.209
			L34.212,43.893L34.212,43.893z M37.5,46.11l0.504-0.123l-0.432-1.772l1.525,1.506l0.545-0.133l-0.657-2.696l-0.504,0.123
			l0.44,1.807l-1.55-1.537l-0.528,0.129L37.5,46.11L37.5,46.11z M40.235,45.411l0.541-0.155l-0.763-2.668l-0.54,0.154L40.235,45.411
			L40.235,45.411z M42.003,44.869l0.575-0.188l0.075-2.944l-0.567,0.185l-0.004,2.163l-1.309-1.733l-0.577,0.189L42.003,44.869
			L42.003,44.869z M43.813,44.235l1.965-0.764l-0.17-0.437l-1.441,0.56l-0.272-0.701l1.293-0.503l-0.17-0.437l-1.293,0.503
			l-0.224-0.575l1.391-0.541l-0.169-0.437l-1.915,0.745L43.813,44.235L43.813,44.235z M46.255,43.262l0.509-0.239l-0.493-1.048
			c0.654-0.308,1.024,0.138,1.637,0.51l0.606-0.285c-0.445-0.287-0.892-0.658-1.386-0.703c0.379-0.251,0.523-0.603,0.332-1.009
			c-0.461-0.979-1.738-0.042-2.387,0.263L46.255,43.262L46.255,43.262z M46.083,41.575c0.365-0.172,1.087-0.349,0.871-0.808
			c-0.212-0.451-0.825,0.007-1.171,0.169L46.083,41.575L46.083,41.575z M48.275,41.324c0.375,0.542,0.869,0.614,1.456,0.302
			c1.145-0.608,0.828-2.03-0.754-1.617c-1.444,0.377-0.31-1.078,0.226-0.376l0.487-0.281c-0.443-0.769-1.869-0.361-1.943,0.499
			c-0.1,1.16,1.295,0.69,1.705,0.629c0.895-0.134,0.006,1.463-0.72,0.54L48.275,41.324L48.275,41.324z M51.124,40.813l0.488-0.279
			l-1.377-2.409l-0.488,0.279L51.124,40.813L51.124,40.813z M50.667,37.885l1.448,2.367c0.993-0.607,2.076-1.057,1.271-2.373
			C52.556,36.522,51.714,37.245,50.667,37.885L50.667,37.885z M51.392,37.992l0.958,1.567c0.679-0.416,1.03-0.581,0.529-1.4
			C52.428,37.419,52.048,37.59,51.392,37.992L51.392,37.992z M56.605,37.359l-2.471-1.683l-0.493,0.331l0.654,2.904l0.493-0.332
			l-0.161-0.653l0.923-0.621l0.551,0.391L56.605,37.359L56.605,37.359z M55.139,37.019l-0.893-0.637l0.262,1.062L55.139,37.019
			L55.139,37.019z M55.236,34.912l1.641,2.238c0.939-0.688,1.979-1.226,1.068-2.47C57.004,33.396,56.226,34.186,55.236,34.912
			L55.236,34.912z M55.967,34.958l1.086,1.482c0.643-0.471,0.979-0.665,0.411-1.439C56.951,34.301,56.587,34.503,55.967,34.958
			L55.967,34.958z M56.648,0c31.201,0,56.648,25.447,56.648,56.648s-25.447,56.648-56.648,56.648S0,87.849,0,56.648
			S25.447,0,56.648,0L56.648,0z M56.648,2.268c29.952,0,54.38,24.428,54.38,54.38s-24.428,54.38-54.38,54.38
			c-29.952,0-54.38-24.429-54.38-54.38S26.696,2.268,56.648,2.268L56.648,2.268z M105.903,56.69c0,27-22.021,49.021-49.022,49.021
			c-27,0-49.021-22.021-49.021-49.021S29.881,7.669,56.881,7.669C83.881,7.669,105.903,29.69,105.903,56.69z"/>
	</g>
</g>
<g id="Capa_3">
	<path fill-rule="evenodd" clip-rule="evenodd" fill="#FFFFFF" d="M127.448,31.739h5.665v33.455c0,2.21,0.588,3.843,1.766,4.898
		c1.188,1.044,2.899,1.577,5.165,1.577c1.732,0,3.166-0.633,4.288-1.889c1.133-1.255,1.699-3.298,1.699-6.12V31.739h3.643v32.8
		c0,3.454-1.022,6.098-3.043,7.952c-2.033,1.855-4.843,2.789-8.441,2.789c-3.543,0-6.209-0.966-8.03-2.899
		c-1.811-1.933-2.71-4.765-2.71-8.52V31.739L127.448,31.739z M560.267,67.538l1.655,1.91c-2.188,1.933-4.609,3.388-7.253,4.365
		c-2.654,0.978-5.51,1.466-8.597,1.466c-6.698,0-12.208-2.1-16.528-6.298c-4.32-4.199-6.476-9.519-6.476-15.961
		c0-6.165,2.178-11.396,6.543-15.717c4.354-4.321,9.696-6.475,16.005-6.475c2.155,0,4.287,0.289,6.398,0.877
		c2.11,0.589,4.242,1.467,6.397,2.633l1.854,1.177v7.908h-1.854v-0.167c0-2.688-1.3-4.976-3.888-6.853
		c-2.599-1.877-5.965-2.811-10.107-2.811c-4.82,0-8.642,1.433-11.484,4.31c-2.844,2.877-4.266,6.964-4.266,12.251
		c0,2.999,0.455,5.842,1.366,8.542c0.91,2.699,2.232,5.12,3.965,7.242c1.911,2.366,4.01,4.021,6.298,4.976s4.81,1.433,7.564,1.433
		c2.365,0,4.564-0.333,6.575-1.011C556.457,70.67,558.401,69.404,560.267,67.538L560.267,67.538z M153.292,35.498h2.815
		l17.095,29.318V35.498h2.815v39.405h-2.815l-17.095-29.582v29.014h-2.815V35.498L153.292,35.498z M180.717,74.335V35.498h5.155
		v38.838H180.717L180.717,74.335z M215.971,35.498l-11.838,39.699h-3.14l-12.021-39.699h5.428l8.993,31.921l9.377-31.921H215.971
		L215.971,35.498z M236.936,35.498v8.578h-1.843c0-2.471-0.598-4.132-1.813-4.982c-1.205-0.851-3.23-1.276-6.077-1.276h-2.967v9.905
		h6.552v2.876h-6.552v21.45h3.352c2.653,0,4.567-0.466,5.742-1.408s1.762-2.684,1.762-5.236h1.843v8.932h-17.865V35.498H236.936
		L236.936,35.498z M246.709,40.834v21.399l1.276-1.934c2.117,1.347,3.899,2.289,5.368,2.835c1.458,0.547,2.866,0.82,4.212,0.82
		c3.18,0,5.813-1.083,7.89-3.251c2.076-2.167,3.119-4.973,3.119-8.416c0-4.031-1.337-7.515-4.01-10.452
		c-2.664-2.947-5.833-4.415-9.489-4.415c-1.55,0-3.028,0.293-4.436,0.86C249.221,38.859,247.914,39.71,246.709,40.834
		L246.709,40.834z M241.544,74.335V35.498h5.165v2.491c1.701-1.124,3.393-1.965,5.074-2.501c1.681-0.547,3.423-0.82,5.246-0.82
		c4.507,0,8.375,1.55,11.586,4.659c3.22,3.109,4.82,6.795,4.82,11.069c0,4.587-1.408,8.354-4.243,11.312
		c-2.826,2.957-6.573,4.578-11.241,4.851l7.889,4.132c8.294,4.284,14.32,6.927,18.098,7.9c3.777,0.982,8.345,1.275,13.682,0.88
		c3.048-0.638,5.104-1.276,6.188-1.914c1.074-0.648,2.573-1.793,4.497-3.454l-0.152,2.218c-2.137,2.218-4.294,3.737-6.471,4.558
		c-2.177,0.82-5.965,1.347-11.363,1.59c-5.418-0.324-12.244-2.299-20.467-5.955c-8.233-3.646-15.94-7.616-23.141-11.91v9.732
		H241.544L241.544,74.335z M297.185,43.356h1.721v-7.292h-1.721c-0.871-0.496-1.692-0.851-2.461-1.073
		c-0.77-0.213-1.611-0.324-2.522-0.324c-2.309,0-4.284,0.82-5.915,2.451c-1.641,1.63-2.451,3.625-2.451,5.975
		c0,3.504,2.987,6.937,8.963,10.299c0.708,0.395,1.246,0.688,1.6,0.891c3.261,1.833,5.388,3.373,6.36,4.598
		c0.982,1.225,1.468,2.704,1.468,4.446c0,2.846-1.043,5.074-3.14,6.674c-2.096,1.6-4.739,2.41-7.919,2.41
		c-3.332,0-6.167-0.901-8.537-2.693c-2.36-1.783-3.544-4.132-3.544-7.039c0-2.177,0.648-3.828,1.944-4.962
		c1.296-1.124,2.917-1.69,4.851-1.69c1.469,0,2.664,0.232,3.595,0.699c0.922,0.465,1.388,1.296,1.388,2.48
		c0,1.003-0.314,1.843-0.932,2.522c-0.628,0.668-1.418,1.023-2.39,1.063l-0.061,1.043c0.244,0.142,0.507,0.243,0.8,0.314
		c0.304,0.061,0.679,0.101,1.134,0.101c1.458,0,2.613-0.385,3.464-1.154c0.851-0.78,1.276-1.823,1.276-3.15
		c0-1.782-0.82-3.301-2.461-4.557c-1.64-1.256-3.636-1.883-5.995-1.883c-2.745,0-5.033,0.952-6.846,2.855
		c-1.823,1.894-2.734,4.273-2.734,7.15c0,3.302,1.337,6.077,4.01,8.314c2.664,2.249,6.026,3.373,10.086,3.373
		c4.78,0,8.619-1.266,11.505-3.788c2.896-2.522,4.334-5.833,4.334-9.955c0-4.385-3.555-8.497-10.674-12.335
		c-0.597-0.324-1.053-0.567-1.367-0.75c-2.886-1.58-4.79-2.866-5.711-3.869c-0.921-0.993-1.377-2.106-1.377-3.332
		c0-1.307,0.476-2.31,1.448-2.998c0.972-0.699,2.167-1.043,3.595-1.043c1.722,0,3.018,0.476,3.899,1.438
		C296.749,39.528,297.185,41.128,297.185,43.356L297.185,43.356z M309.895,74.335V35.498h5.155v38.838H309.895L309.895,74.335z
		 M324.854,70.66c1.286,0.435,2.521,0.759,3.717,0.972c1.185,0.223,2.329,0.334,3.433,0.334c5.023,0.375,9.175-1.054,12.436-4.294
		c3.261-3.23,4.892-7.362,4.892-12.386c0-5.003-1.661-9.196-4.983-12.578s-7.434-4.871-12.345-4.477
		c-1.043,0-2.167,0.112-3.352,0.335c-1.185,0.232-2.451,0.567-3.798,1.022V70.66L324.854,70.66z M319.993,74.335V35.498h3.585
		c1.246,0,2.998-0.051,5.235-0.152c2.248-0.091,3.869-0.142,4.851-0.142c6.016,0,10.958,1.803,14.836,5.408
		c3.879,3.615,5.812,8.203,5.812,13.783c0,5.792-2.086,10.623-6.268,14.461c-4.183,3.849-9.469,5.772-15.859,5.772
		c-0.851,0-2.309-0.051-4.365-0.142c-2.056-0.101-3.676-0.152-4.861-0.152H319.993L319.993,74.335z M365.334,51.488h5.458
		l-2.582-9.904L365.334,51.488L365.334,51.488z M356.046,74.335l12.285-39.668h2.046l11.93,39.668h-5.378l-5.073-18.755h-7.353
		l-5.641,18.755H356.046L356.046,74.335z M390.056,70.66c1.286,0.435,2.521,0.759,3.716,0.972c1.186,0.223,2.329,0.334,3.434,0.334
		c5.023,0.375,9.175-1.054,12.437-4.294c3.261-3.23,4.891-7.362,4.891-12.386c0-5.003-1.66-9.196-4.982-12.578
		c-3.321-3.382-7.434-4.871-12.345-4.477c-1.043,0-2.167,0.112-3.352,0.335c-1.186,0.232-2.451,0.567-3.798,1.022V70.66
		L390.056,70.66z M385.194,74.335V35.498h3.585c1.246,0,2.997-0.051,5.235-0.152c2.248-0.091,3.869-0.142,4.852-0.142
		c6.015,0,10.957,1.803,14.836,5.408c3.879,3.615,5.813,8.203,5.813,13.783c0,5.792-2.087,10.623-6.269,14.461
		c-4.183,3.849-9.47,5.772-15.859,5.772c-0.851,0-2.31-0.051-4.365-0.142c-2.056-0.101-3.676-0.152-4.861-0.152H385.194
		L385.194,74.335z M448.176,70.66c1.286,0.435,2.521,0.759,3.717,0.972c1.185,0.223,2.329,0.334,3.433,0.334
		c5.023,0.375,9.175-1.054,12.437-4.294c3.261-3.23,4.892-7.362,4.892-12.386c0-5.003-1.661-9.196-4.983-12.578
		c-3.321-3.382-7.433-4.871-12.345-4.477c-1.043,0-2.167,0.112-3.352,0.335c-1.186,0.232-2.451,0.567-3.798,1.022V70.66
		L448.176,70.66z M443.314,74.335V35.498h3.585c1.246,0,2.998-0.051,5.235-0.152c2.249-0.091,3.869-0.142,4.852-0.142
		c6.016,0,10.958,1.803,14.836,5.408c3.879,3.615,5.813,8.203,5.813,13.783c0,5.792-2.087,10.623-6.269,14.461
		c-4.183,3.849-9.47,5.772-15.859,5.772c-0.851,0-2.31-0.051-4.365-0.142c-2.056-0.101-3.676-0.152-4.861-0.152H443.314
		L443.314,74.335z M499.694,35.498v8.578h-1.844c0-2.471-0.598-4.132-1.812-4.982c-1.205-0.851-3.23-1.276-6.076-1.276h-2.968v9.905
		h6.553v2.876h-6.553v21.45h3.353c2.653,0,4.567-0.466,5.741-1.408c1.176-0.942,1.763-2.684,1.763-5.236h1.844v8.932h-17.865V35.498
		H499.694L499.694,35.498z M586.667,71.044c4.294,0,7.777-1.255,10.461-3.768c2.674-2.511,4.021-5.772,4.021-9.762
		c0-2.431-0.445-4.77-1.326-7.019c-0.881-2.248-2.157-4.304-3.838-6.187c-1.884-2.077-3.93-3.636-6.157-4.669
		c-2.229-1.043-4.648-1.56-7.282-1.56c-4,0-7.24,1.287-9.722,3.869c-2.481,2.583-3.717,5.996-3.717,10.219
		c0,2.481,0.415,4.831,1.246,7.069c0.83,2.228,2.035,4.233,3.615,5.995c1.762,1.975,3.676,3.434,5.752,4.385
		C581.806,70.568,584.115,71.044,586.667,71.044L586.667,71.044z M584.976,75.196c-6.097,0-11.109-1.914-15.059-5.742
		c-3.939-3.828-5.915-8.679-5.915-14.553c0-5.641,1.995-10.421,6.006-14.34c4.011-3.929,8.912-5.894,14.735-5.894
		c5.965,0,11.018,1.975,15.14,5.915c4.122,3.95,6.188,8.719,6.188,14.32c0,5.752-2.006,10.573-6.006,14.462
		C596.055,73.252,591.032,75.196,584.976,75.196L584.976,75.196z M614.893,35.498v36.255h2.137c2.663,0,4.577-0.425,5.722-1.286
		s1.722-2.674,1.722-5.418h1.844v9.287h-16.589V35.498H614.893L614.893,35.498z M631.4,74.335V35.498h5.155v38.838H631.4
		L631.4,74.335z M640.962,35.498h6.532l6.016,18.695l7.068-18.695h6.046v38.838h-4.334l0.03-36.225l-9.61,25.217l-8.872-25.217
		v36.225h-2.876V35.498L640.962,35.498z M677.856,51.488h5.459l-2.583-9.904L677.856,51.488L677.856,51.488z M668.569,74.335
		l12.284-39.668h2.046l11.93,39.668h-5.377l-5.074-18.755h-7.352l-5.642,18.755H668.569z"/>
</g>
</svg>
